<?xml version="1.0" standalone="no"?><!DOCTYPE svg PUBLIC "-//W3C//DTD SVG 1.1//EN" "http://www.w3.org/Graphics/SVG/1.1/DTD/svg11.dtd"><svg t="1693571567352" class="icon" viewBox="0 0 1195 1024" version="1.1" xmlns="http://www.w3.org/2000/svg" p-id="3536" xmlns:xlink="http://www.w3.org/1999/xlink" width="233.3984375" height="200"><path d="M935.112817 810.777735H919.029795a21.5972 21.5972 0 0 1 0-42.734885h17.921081a213.214913 213.214913 0 0 0 216.891032-209.079279 209.998308 209.998308 0 0 0-146.125737-197.591406 20.218655 20.218655 0 0 1-14.244962-22.51623v-29.408953a261.004462 261.004462 0 0 0-34.463618-129.123686 21.5972 21.5972 0 0 1 5.973694-28.949439 22.056715 22.056715 0 0 1 28.949439 7.811753 303.739347 303.739347 0 0 1 39.977796 150.261372v17.461566a251.814164 251.814164 0 0 1 160.830214 232.055023 256.409313 256.409313 0 0 1-259.625917 251.814164zM275.708939 810.777735h-16.083022a261.004462 261.004462 0 0 1-158.073125-51.925183 21.137685 21.137685 0 0 1-4.595149-29.868469 22.056715 22.056715 0 0 1 29.868469-4.595149 220.107636 220.107636 0 0 0 132.799805 45.95149H275.708939a21.5972 21.5972 0 0 1 0 42.734886z m-219.188607-109.82406A20.218655 20.218655 0 0 1 38.599251 689.465802 243.083381 243.083381 0 0 1 0 558.963571a249.976104 249.976104 0 0 1 158.992155-229.757449 178.29178 178.29178 0 0 1 180.129839-175.53469 183.805959 183.805959 0 0 1 89.145891 22.975744 317.065279 317.065279 0 0 1 115.338239-127.285626 328.093637 328.093637 0 0 1 321.660428-13.785447 21.137685 21.137685 0 0 1 9.190298 28.489924 21.5972 21.5972 0 0 1-28.949438 9.190298 281.682632 281.682632 0 0 0-128.664172-30.327984A275.708939 275.708939 0 0 0 459.514898 216.165458a21.137685 21.137685 0 0 1-16.083022 13.785447 21.5972 21.5972 0 0 1-18.840111-3.67612 137.854469 137.854469 0 0 0-85.469771-28.949438 135.09738 135.09738 0 0 0-137.854469 132.34029 108.445516 108.445516 0 0 0 0 11.487873 20.67817 20.67817 0 0 1-14.244962 21.5972 209.998308 209.998308 0 0 0-144.287678 196.212861 204.943644 204.943644 0 0 0 31.706528 109.364546 19.299626 19.299626 0 0 1 2.75709 15.623506 22.51623 22.51623 0 0 1-9.190298 13.785447 25.273319 25.273319 0 0 1-11.487873 3.216605zM924.543974 124.721993a21.5972 21.5972 0 0 1-21.5972-21.5972 22.51623 22.51623 0 0 1 5.973694-14.244962 22.51623 22.51623 0 0 1 30.327983 0 21.5972 21.5972 0 0 1 6.433208 15.163992 21.137685 21.137685 0 0 1-21.137685 22.056715zM597.369367 523.121409a250.435619 250.435619 0 1 0 250.435619 249.976105A250.435619 250.435619 0 0 0 597.369367 523.121409z m0 464.569562a214.593457 214.593457 0 1 1 214.593457-214.593457A214.593457 214.593457 0 0 1 597.369367 987.690971z" fill="#1296db" p-id="3537"></path><path d="M597.369367 558.963571a212.295883 212.295883 0 0 0-70.765294 7.811754 280.304088 280.304088 0 0 0-79.036563 175.53469 275.708939 275.708939 0 0 0 106.147942 242.623866h15.163991a171.858572 171.858572 0 0 0 57.439363 0 229.757449 229.757449 0 0 1-142.909134-241.245321A235.731143 235.731143 0 0 1 597.369367 558.963571z" fill="#1296db" p-id="3538"></path><path d="M597.369367 558.963571a212.295883 212.295883 0 0 1 70.765294 7.811754 280.304088 280.304088 0 0 1 79.036563 175.53469 275.708939 275.708939 0 0 1-106.147942 242.623866h-15.163991a171.858572 171.858572 0 0 1-57.439363 0 229.757449 229.757449 0 0 0 142.909134-241.245321A235.731143 235.731143 0 0 0 597.369367 558.963571z" fill="#1296db" p-id="3539"></path><path d="M597.369367 666.030542a249.057075 249.057075 0 0 0 147.504282-48.708579 205.403159 205.403159 0 0 0-28.949438-22.975745 214.133942 214.133942 0 0 1-237.109688 0 205.403159 205.403159 0 0 0-28.949438 22.975745A249.057075 249.057075 0 0 0 597.369367 666.030542zM597.369367 881.083515a248.59756 248.59756 0 0 1 147.504282 45.951489 179.21081 179.21081 0 0 1-28.949438 23.43526 214.133942 214.133942 0 0 0-237.109688 0 179.21081 179.21081 0 0 1-28.949438-23.43526 248.59756 248.59756 0 0 1 147.504282-45.951489zM359.800165 755.635948h474.678889v35.842162H359.800165z" fill="#1296db" p-id="3540"></path></svg>